<?xml version="1.0" standalone="no"?>
<!DOCTYPE svg PUBLIC "-//W3C//DTD SVG 20010904//EN"
 "http://www.w3.org/TR/2001/REC-SVG-20010904/DTD/svg10.dtd">
<svg version="1.0" xmlns="http://www.w3.org/2000/svg"
 width="512.000000pt" height="512.000000pt" viewBox="0 0 512.000000 512.000000"
 preserveAspectRatio="xMidYMid meet">

<g transform="translate(0.000000,512.000000) scale(0.100000,-0.100000)"
fill="#FFFFFF" stroke="none">
<path d="M1941 5103 c-63 -32 -114 -141 -145 -310 -22 -118 -39 -383 -31 -488
8 -103 14 -104 -79 12 -74 92 -250 268 -346 346 -278 224 -470 275 -527 139
-21 -52 -11 -111 37 -209 80 -162 297 -416 499 -585 47 -40 91 -77 98 -82 9
-8 -45 -11 -185 -12 -413 -2 -665 -77 -697 -207 -22 -86 60 -160 227 -207 61
-17 275 -50 328 -50 8 0 -7 -11 -35 -24 -91 -43 -140 -114 -120 -175 11 -36
56 -81 105 -106 105 -53 331 -95 516 -95 l94 0 0 -1102 c0 -912 3 -1119 15
-1198 53 -353 293 -621 645 -723 72 -20 95 -21 663 -25 650 -3 682 -1 839 59
208 81 402 269 485 472 68 165 66 143 70 794 l4 593 -75 0 -76 0 0 -192 0
-193 -232 232 -233 233 225 225 c124 124 228 225 232 225 5 0 8 -83 8 -185 l0
-185 75 0 75 0 0 560 0 560 -240 0 -240 0 0 325 0 325 320 0 320 0 0 235 0
235 -555 0 -555 0 0 -560 0 -560 -226 0 c-210 0 -225 1 -220 18 16 52 28 220
28 392 0 347 -52 585 -146 667 -62 55 -109 56 -170 2 -19 -17 -46 -53 -59 -81
l-24 -51 -8 79 c-14 162 -56 335 -95 399 -10 17 -33 44 -50 60 -26 25 -40 30
-80 30 -42 0 -54 -5 -86 -35 -20 -19 -47 -57 -59 -83 l-23 -48 -6 73 c-11 113
-34 235 -62 320 -47 143 -134 206 -223 161z m98 -271 c11 -48 25 -125 31 -172
15 -128 12 -423 -5 -550 -16 -112 -48 -235 -64 -245 -5 -3 -16 16 -25 43 -81
243 -81 731 1 991 14 46 18 51 29 37 7 -10 21 -56 33 -104z m-1000 -142 c158
-85 473 -376 600 -555 62 -88 126 -203 118 -211 -9 -9 -148 70 -232 133 -214
160 -520 510 -560 641 -9 30 5 28 74 -8z m1390 -215 c40 -129 54 -280 48 -530
-6 -230 -16 -310 -53 -430 -10 -30 -21 -55 -25 -55 -14 0 -49 133 -65 246 -27
190 -18 531 17 694 15 71 40 140 49 140 5 0 18 -29 29 -65z m1981 -390 l0 -85
-268 0 -267 0 -85 85 -85 85 353 0 352 0 0 -85z m-1581 -12 c29 -99 41 -176
50 -333 7 -127 0 -368 -13 -437 -2 -16 -7 -45 -11 -65 -6 -38 -6 -38 -54 -38
l-49 0 -12 63 c-21 108 -25 494 -6 630 18 124 50 247 66 247 5 0 18 -30 29
-67z m941 -530 l0 -343 -85 0 -85 0 0 427 0 428 85 -85 85 -85 0 -342z m-1576
82 l7 -40 -61 61 -62 61 30 42 c17 24 37 59 44 79 12 36 12 36 23 -63 7 -55
15 -118 19 -140z m-604 121 c92 -14 230 -51 230 -62 0 -11 -79 -37 -169 -55
-129 -26 -455 -37 -612 -19 -110 12 -222 36 -284 60 l-30 12 47 18 c158 63
557 85 818 46z m445 -207 c33 -34 52 -59 41 -55 -10 3 -72 12 -137 18 l-118
12 58 28 c32 15 64 35 71 43 7 8 15 15 19 15 4 0 33 -28 66 -61z m559 -303 c4
-20 3 -36 -1 -36 -5 0 -32 24 -61 53 l-53 54 36 52 c19 30 38 65 42 80 5 19
10 0 19 -70 6 -53 14 -113 18 -133z m-606 108 c117 -17 235 -50 227 -64 -11
-18 -138 -50 -259 -66 -151 -20 -519 -14 -636 10 -97 20 -180 47 -180 57 0 10
109 44 192 59 169 31 456 33 656 4z m62 -301 c0 -10 -203 -213 -212 -213 -10
0 -11 204 -1 213 9 9 213 9 213 0z m680 -198 l205 -205 -268 -268 -267 -267
-267 267 -268 268 205 205 205 205 125 0 125 0 205 -205z m600 197 c0 -4 -65
-72 -145 -152 l-145 -145 -145 145 c-80 80 -145 148 -145 152 0 5 131 8 290 8
160 0 290 -3 290 -8z m680 -197 l205 -205 -268 -268 -267 -267 -267 267 -268
268 205 205 205 205 125 0 125 0 205 -205z m238 93 c1 -60 0 -108 -3 -108 -8
0 -215 206 -215 214 0 4 48 5 108 4 l107 -3 3 -107z m-938 -673 l265 -265
-268 -268 -267 -267 -267 267 -268 268 265 265 c146 146 267 265 270 265 3 0
124 -119 270 -265z m-1240 -40 l225 -225 -225 -225 c-124 -124 -228 -225 -232
-225 -5 0 -8 203 -8 450 0 248 3 450 8 450 4 0 108 -101 232 -225z m600 -600
l265 -265 -95 -95 -95 -95 53 -52 52 -53 95 95 95 95 268 -268 267 -267 -268
-267 -267 -268 -267 267 -268 268 113 113 112 112 -52 53 -53 52 -112 -112
-113 -113 -268 268 -267 267 265 265 c146 146 267 265 270 265 3 0 124 -119
270 -265z m1280 0 l265 -265 -268 -268 -267 -267 -267 267 -268 268 265 265
c146 146 267 265 270 265 3 0 124 -119 270 -265z m-1889 -680 c123 -124 225
-227 226 -228 1 -2 -64 -69 -146 -151 l-148 -147 -41 64 c-55 83 -99 205 -112
308 -9 76 -15 379 -7 379 2 0 105 -101 228 -225z m2186 -5 c-5 -199 -15 -253
-67 -367 -16 -35 -43 -83 -61 -108 l-33 -46 -148 148 -148 148 227 228 c193
193 229 224 232 205 2 -13 1 -106 -2 -208z m-1623 -557 l227 -228 -158 -3
c-191 -4 -295 9 -399 52 -83 33 -184 94 -184 110 0 7 279 296 285 296 1 0 104
-102 229 -227z m1329 -91 c-41 -33 -179 -99 -248 -118 -44 -12 -116 -18 -270
-21 l-210 -4 230 230 230 231 148 -148 148 -147 -28 -23z"/>
<path d="M3684 2786 c-8 -20 0 -141 9 -138 4 1 39 2 77 2 l70 0 0 75 0 75 -75
0 c-54 0 -77 -4 -81 -14z"/>
<path d="M3524 2626 c-3 -7 -4 -42 -2 -77 l3 -64 78 -3 77 -3 0 81 0 80 -75 0
c-54 0 -77 -4 -81 -14z"/>
<path d="M2240 1435 l0 -75 80 0 80 0 0 75 0 75 -80 0 -80 0 0 -75z"/>
<path d="M2400 1275 l0 -75 80 0 80 0 0 75 0 75 -80 0 -80 0 0 -75z"/>
</g>
</svg>
