<?xml version="1.0" standalone="no"?>
<!DOCTYPE svg PUBLIC "-//W3C//DTD SVG 20010904//EN"
 "http://www.w3.org/TR/2001/REC-SVG-20010904/DTD/svg10.dtd">
<svg version="1.0" xmlns="http://www.w3.org/2000/svg"
 width="128.000000pt" height="128.000000pt" viewBox="0 0 128.000000 128.000000"
 preserveAspectRatio="xMidYMid meet">

<g transform="translate(0.000000,128.000000) scale(0.100000,-0.100000)"
fill="#FFFFFF" stroke="none">
<path d="M462 1187 c-7 -8 -6 -19 3 -37 21 -37 18 -75 -10 -128 -40 -76 -26
-192 24 -192 25 0 32 21 15 51 -20 37 -17 76 12 125 22 38 26 54 22 99 -3 34
-12 62 -23 75 -21 23 -29 25 -43 7z"/>
<path d="M623 1189 c-8 -8 -7 -20 3 -45 20 -47 17 -73 -11 -119 -42 -68 -26
-195 24 -195 25 0 32 21 15 51 -20 37 -17 76 12 125 22 38 26 54 22 99 -3 34
-12 62 -23 75 -21 23 -27 24 -42 9z"/>
<path d="M782 1187 c-7 -8 -6 -19 3 -37 21 -37 18 -75 -10 -128 -40 -76 -26
-192 24 -192 25 0 32 21 15 51 -20 37 -17 76 12 125 22 38 26 54 22 99 -3 34
-12 62 -23 75 -21 23 -29 25 -43 7z"/>
<path d="M181 744 c-17 -21 -21 -41 -21 -93 0 -140 46 -257 138 -353 l55 -58
-172 0 c-203 0 -210 -4 -140 -77 83 -85 63 -83 574 -83 511 0 491 -2 574 83
38 39 42 48 31 62 -10 12 -41 15 -178 15 l-167 0 25 25 c15 15 50 31 85 40 91
23 223 93 259 138 27 33 31 47 31 97 0 48 -4 63 -24 84 -34 36 -85 50 -138 38
-42 -10 -43 -9 -43 15 0 31 -25 79 -45 87 -9 3 -198 6 -420 6 l-404 0 -20 -26z
m824 -124 c0 -85 -3 -102 -31 -160 -40 -82 -87 -141 -149 -185 l-49 -35 -163
0 -164 0 -44 30 c-53 37 -103 94 -139 160 -45 83 -72 250 -44 278 9 9 106 12
398 10 l385 -3 0 -95z m200 -24 c14 -10 20 -26 20 -56 0 -38 -6 -47 -47 -85
-29 -26 -73 -52 -115 -68 -37 -14 -69 -24 -71 -22 -1 1 11 31 28 66 16 35 33
86 36 112 5 37 12 51 28 57 33 14 100 11 121 -4z m-90 -426 c-10 -11 -34 -24
-54 -30 -21 -6 -206 -10 -456 -10 -393 0 -423 2 -462 20 -24 10 -43 24 -43 29
0 7 169 11 516 11 513 -1 516 -1 499 -20z"/>
</g>
</svg>
