<?xml version="1.0" standalone="no"?>
<!DOCTYPE svg PUBLIC "-//W3C//DTD SVG 20010904//EN"
 "http://www.w3.org/TR/2001/REC-SVG-20010904/DTD/svg10.dtd">
<svg version="1.0" xmlns="http://www.w3.org/2000/svg"
 width="128.000000pt" height="128.000000pt" viewBox="0 0 128.000000 128.000000"
 preserveAspectRatio="xMidYMid meet">

<g transform="translate(0.000000,128.000000) scale(0.100000,-0.100000)"
fill="#FFFFFF" stroke="none">
<path d="M245 1233 c-16 -10 -53 -18 -80 -18 -32 -1 -69 -10 -100 -25 -89 -44
-94 -21 120 -572 103 -266 194 -490 202 -500 25 -28 113 -60 152 -55 23 3 49
-3 73 -14 43 -22 71 -24 101 -7 12 6 49 11 83 10 54 -2 65 1 99 28 21 16 48
30 61 30 40 0 71 17 91 53 12 19 40 45 64 58 35 20 45 32 56 68 7 25 27 60 45
78 28 29 32 40 33 91 1 34 9 71 20 91 17 33 17 38 3 80 -11 30 -14 64 -11 97
5 46 2 54 -26 86 -17 20 -31 45 -31 56 0 34 -18 72 -35 72 -8 0 -15 -2 -15 -4
0 -36 26 -117 46 -144 23 -29 26 -40 20 -78 -4 -30 0 -57 10 -84 15 -38 15
-43 -4 -89 -14 -32 -19 -59 -16 -83 5 -30 1 -40 -30 -72 -19 -21 -38 -53 -42
-72 -6 -35 -17 -47 -64 -73 -16 -9 -40 -32 -52 -51 -18 -27 -33 -36 -66 -42
-23 -4 -57 -19 -76 -34 -28 -23 -45 -28 -98 -30 -34 -1 -77 -5 -95 -9 -22 -5
-38 -2 -55 9 -13 10 -44 16 -78 17 -47 0 -51 2 -30 10 14 6 37 22 52 36 21 20
33 24 56 20 48 -10 163 12 230 43 76 35 169 121 207 191 78 143 74 322 -10
465 -53 91 -176 183 -277 207 -25 7 -26 9 -16 38 6 17 17 33 24 36 29 11 86
-9 124 -44 22 -19 59 -41 82 -47 34 -10 48 -21 66 -54 24 -42 52 -56 52 -26 0
47 -62 114 -105 114 -8 0 -30 13 -48 30 -19 16 -54 39 -78 50 -79 36 -116 24
-152 -47 l-24 -46 -22 37 c-25 41 -48 56 -84 56 -13 0 -44 14 -69 30 -40 26
-54 30 -105 28 -32 -1 -68 4 -80 10 -30 16 -62 14 -98 -5z m166 -37 c55 -2 71
-6 97 -28 17 -14 50 -28 75 -32 37 -6 48 -13 68 -44 13 -20 42 -46 64 -57 32
-17 42 -30 52 -65 7 -24 26 -58 43 -75 25 -26 30 -39 30 -80 1 -29 9 -65 19
-85 17 -32 18 -38 4 -72 -11 -27 -13 -54 -8 -93 11 -91 39 -81 41 15 0 30 4
73 9 96 5 30 3 49 -9 72 -9 17 -16 53 -16 80 0 42 -5 54 -35 86 -30 32 -62
103 -51 114 2 2 28 -9 57 -23 116 -59 209 -185 229 -311 37 -226 -126 -452
-352 -487 l-36 -5 23 36 c23 36 38 53 87 96 25 23 46 104 33 126 -10 16 -35
-8 -35 -34 0 -41 -12 -61 -51 -89 -22 -15 -47 -43 -55 -62 -11 -28 -22 -36
-56 -45 -24 -7 -59 -26 -78 -44 -40 -38 -88 -59 -122 -54 -18 2 -24 10 -26 35
-3 31 -1 33 73 67 290 134 364 517 142 738 -94 94 -199 140 -322 140 -87 0
-174 -18 -182 -39 -9 -24 2 -25 87 -7 68 13 95 14 147 6 253 -42 412 -281 348
-526 -19 -74 -56 -136 -115 -195 -71 -70 -210 -133 -222 -99 -281 720 -329
851 -324 872 7 29 74 56 137 55 25 -1 59 6 75 15 19 10 40 14 59 10 17 -4 60
-7 96 -8z"/>
</g>
</svg>
