<?xml version="1.0" standalone="no"?>
<!DOCTYPE svg PUBLIC "-//W3C//DTD SVG 20010904//EN"
 "http://www.w3.org/TR/2001/REC-SVG-20010904/DTD/svg10.dtd">
<svg version="1.0" xmlns="http://www.w3.org/2000/svg"
 width="512.000000pt" height="512.000000pt" viewBox="0 0 512.000000 512.000000"
 preserveAspectRatio="xMidYMid meet">

<g transform="translate(0.000000,512.000000) scale(0.100000,-0.100000)"
fill="#FFFFFF" stroke="none">
<path d="M1069 5101 c-28 -22 -32 -83 -7 -107 9 -9 197 -61 454 -125 242 -61
449 -117 462 -125 13 -8 27 -25 32 -37 5 -12 28 -164 50 -337 22 -173 42 -327
45 -342 l5 -28 -188 0 c-175 0 -191 -2 -232 -22 -68 -35 -90 -86 -90 -208 0
-116 11 -157 50 -195 26 -25 30 -35 30 -84 -1 -83 -27 -129 -144 -249 -113
-116 -148 -172 -166 -267 -8 -43 -10 -439 -8 -1430 l3 -1370 22 -41 c28 -53
91 -107 142 -122 55 -17 1847 -17 1902 0 51 15 114 69 142 122 l22 41 3 1365
c2 967 0 1384 -8 1430 -17 99 -51 154 -166 272 -106 108 -143 167 -144 223 0
27 17 13 208 -177 114 -113 218 -211 230 -218 38 -19 76 4 142 86 238 296 283
681 121 1019 -58 121 -118 202 -216 293 -234 215 -559 298 -875 222 -114 -27
-286 -114 -378 -191 -75 -62 -97 -96 -86 -133 3 -11 83 -99 177 -193 l171
-173 -257 0 c-141 0 -257 1 -257 3 -1 1 -22 167 -49 369 -55 417 -61 439 -143
494 -39 26 -114 48 -492 142 -245 62 -454 112 -465 112 -10 0 -29 -8 -42 -19z
m1981 -821 l0 -280 -32 0 c-29 0 -54 22 -220 187 -103 104 -188 191 -188 196
0 13 131 93 198 121 80 34 157 55 205 55 l37 1 0 -280z m328 246 c85 -29 176
-76 223 -116 l34 -28 -24 -26 c-71 -76 30 -175 106 -104 l25 23 22 -28 c70
-87 138 -245 152 -354 l7 -53 -281 0 c-275 0 -281 0 -287 21 -5 16 8 36 64 94
78 80 90 116 51 155 -39 39 -77 27 -155 -50 -56 -56 -74 -68 -92 -64 l-23 6 0
281 0 280 53 -6 c29 -4 85 -18 125 -31z m-170 -763 l3 -83 -94 0 c-80 0 -98
-3 -121 -21 -18 -14 -26 -30 -26 -53 0 -54 20 -70 92 -76 l63 -5 6 -71 c10
-109 44 -169 171 -300 59 -62 108 -116 108 -121 0 -4 -38 -23 -85 -40 -116
-45 -197 -45 -297 -3 -137 58 -256 59 -401 1 -62 -25 -92 -31 -152 -31 -40 0
-76 3 -78 8 -3 4 -15 81 -27 171 -12 91 -26 173 -31 183 -15 28 -57 41 -90 28
-45 -19 -51 -50 -34 -179 21 -158 24 -145 -41 -138 -75 8 -163 -8 -247 -43
-98 -42 -191 -42 -287 0 -38 17 -73 30 -79 30 -25 0 -6 28 87 124 54 55 107
115 118 131 34 50 57 116 63 185 l6 65 463 5 c444 5 464 6 478 24 23 33 18 82
-12 105 -26 21 -36 21 -520 21 l-494 0 0 78 c0 43 3 82 7 85 3 4 331 6 727 5
l721 -3 3 -82z m712 -100 c0 -83 -91 -310 -155 -388 l-25 -30 -196 196 c-179
179 -195 198 -189 222 l7 27 279 0 279 0 0 -27z m-1685 -793 c19 -7 31 -91
177 -1216 156 -1208 156 -1209 183 -1231 32 -28 55 -29 89 -2 22 17 26 28 26
67 -1 26 -67 558 -149 1182 l-147 1135 95 6 c78 5 110 12 171 39 106 46 181
45 310 -5 92 -36 98 -37 200 -33 86 4 116 9 167 31 34 15 69 27 78 27 14 0 15
-138 13 -1336 l-3 -1336 -28 -24 -28 -24 -909 0 -909 0 -28 24 -28 24 -3 1341
-2 1341 52 -21 c109 -44 147 -51 247 -47 76 4 110 10 161 32 100 42 194 51
265 26z"/>
</g>
</svg>
