<?xml version="1.0" standalone="no"?>
<!DOCTYPE svg PUBLIC "-//W3C//DTD SVG 20010904//EN"
 "http://www.w3.org/TR/2001/REC-SVG-20010904/DTD/svg10.dtd">
<svg version="1.0" xmlns="http://www.w3.org/2000/svg"
 width="128.000000pt" height="128.000000pt" viewBox="0 0 128.000000 128.000000"
 preserveAspectRatio="xMidYMid meet">

<g transform="translate(0.000000,128.000000) scale(0.100000,-0.100000)"
fill="#FFFFFF" stroke="none">
<path d="M1088 1173 l-68 -67 -82 17 c-80 17 -83 17 -102 -2 -19 -20 -19 -20
7 -81 31 -71 33 -83 11 -100 -13 -11 -24 -5 -75 46 l-59 59 -122 -122 -122
-122 24 -27 25 -27 -57 7 -57 7 -30 -60 c-27 -53 -35 -60 -63 -63 -29 -3 -37
-11 -75 -78 -24 -41 -41 -79 -40 -84 3 -10 23 -17 96 -36 l44 -12 -50 -51
c-61 -62 -74 -85 -88 -157 -14 -69 -37 -75 -46 -11 -14 105 -119 91 -119 -16
0 -133 142 -200 237 -111 23 22 37 56 47 120 4 24 22 54 52 87 25 28 49 51 53
51 3 0 17 -29 29 -65 13 -36 28 -68 33 -71 5 -3 44 14 87 38 71 41 77 46 75
74 -2 28 3 32 63 62 57 28 65 36 61 55 -3 12 -9 36 -13 52 l-7 30 22 -19 22
-20 121 121 c106 106 120 124 108 138 -7 8 -11 17 -9 18 2 1 17 9 33 17 84 43
176 170 179 251 2 27 -2 33 -28 42 -16 5 -32 11 -34 14 -3 2 12 21 33 42 32
33 37 44 34 77 -3 38 -4 39 -43 42 -37 2 -44 -2 -107 -65z m112 10 c0 -29 -70
-93 -102 -93 -15 0 -28 3 -28 7 0 4 21 29 47 55 48 49 83 62 83 31z m-87 -139
c89 -19 92 -25 53 -102 -38 -76 -153 -170 -177 -145 -9 10 -119 279 -119 292
0 5 37 1 83 -10 45 -10 117 -26 160 -35z m-253 -189 c127 -128 134 -136 117
-152 -16 -16 -19 -15 -62 27 -35 34 -48 41 -57 32 -9 -9 -2 -22 32 -57 l44
-45 -36 -37 -37 -37 -26 24 c-19 18 -28 21 -37 12 -9 -9 -6 -18 12 -37 23 -24
23 -26 7 -43 -16 -16 -25 -9 -154 121 -130 129 -137 138 -121 154 17 16 19 16
43 -7 19 -18 28 -21 37 -12 9 9 6 18 -12 37 l-24 25 64 65 c36 36 67 65 70 65
3 0 66 -61 140 -135z m50 23 c0 -13 -17 -9 -30 7 -6 8 -8 20 -4 26 5 9 11 7
21 -6 7 -11 13 -22 13 -27z m-343 -199 c83 -40 126 -93 156 -197 l16 -52 -48
-25 -49 -24 -17 45 c-25 67 -103 146 -175 178 -33 15 -60 29 -60 32 0 3 9 23
20 45 20 38 22 39 58 34 20 -4 65 -20 99 -36z m-120 -120 c83 -40 126 -93 156
-196 l16 -52 -52 -30 c-29 -17 -55 -27 -58 -23 -3 4 -16 35 -29 69 -27 75 -78
127 -142 143 -24 6 -53 14 -65 18 l-22 7 30 53 c30 51 32 52 67 46 21 -3 65
-19 99 -35z m-37 -177 c0 -4 -23 -30 -51 -57 -53 -52 -79 -97 -79 -139 0 -39
-21 -76 -51 -92 -78 -40 -156 17 -147 107 5 52 32 45 39 -10 9 -67 58 -92 99
-51 12 12 20 34 20 53 1 47 33 110 86 167 39 41 49 48 65 39 11 -5 19 -13 19
-17z"/>
<path d="M1075 979 c-4 -5 1 -19 11 -30 13 -15 20 -16 31 -8 11 10 11 15 -3
30 -19 22 -30 24 -39 8z"/>
<path d="M975 959 c-4 -5 1 -19 11 -30 13 -15 20 -16 31 -8 11 10 11 15 -3 30
-19 22 -30 24 -39 8z"/>
<path d="M715 879 c-4 -5 1 -19 11 -30 13 -15 20 -16 31 -8 11 10 11 15 -3 30
-19 22 -30 24 -39 8z"/>
</g>
</svg>
