<?xml version="1.0" standalone="no"?>
<!DOCTYPE svg PUBLIC "-//W3C//DTD SVG 20010904//EN"
 "http://www.w3.org/TR/2001/REC-SVG-20010904/DTD/svg10.dtd">
<svg version="1.0" xmlns="http://www.w3.org/2000/svg"
 width="50.000000pt" height="50.000000pt" viewBox="0 0 50.000000 50.000000"
 preserveAspectRatio="xMidYMid meet">

<g transform="translate(0.000000,50.000000) scale(0.100000,-0.100000)"
fill="#FFFFFF" stroke="none">
<path d="M133 450 c-104 -60 -145 -194 -91 -300 13 -24 30 -46 38 -48 11 -4
11 0 -3 16 -24 26 -46 88 -47 127 -1 115 106 225 221 225 35 0 108 -26 132
-48 16 -13 19 -14 15 -2 -10 31 -80 60 -148 60 -54 0 -74 -5 -117 -30z"/>
<path d="M175 426 c-27 -6 -55 -14 -62 -19 -6 -4 -21 -38 -32 -75 -40 -127 -4
-243 69 -229 23 5 31 1 44 -18 43 -65 208 8 245 108 14 35 14 50 1 42 -5 -3
-10 -14 -10 -24 0 -10 -7 -24 -15 -31 -12 -10 -15 -10 -15 4 0 9 4 16 8 16 13
0 7 43 -6 48 -7 2 -12 -4 -12 -13 0 -9 -5 -13 -11 -9 -7 4 -9 0 -5 -14 4 -13
1 -22 -8 -25 -27 -11 -13 35 22 70 32 33 57 37 45 8 -3 -8 0 -15 6 -15 35 0
-37 125 -90 157 -42 25 -89 37 -89 23 0 -5 7 -10 15 -10 45 0 135 -75 135
-112 0 -14 -51 -41 -60 -32 -11 11 -2 27 25 42 11 6 14 12 8 12 -7 0 -13 7
-13 15 0 18 -7 19 -24 3 -7 -7 -11 -20 -8 -30 3 -14 0 -17 -13 -12 -14 6 -16
3 -10 -14 7 -24 -6 -29 -23 -9 -8 10 -6 16 9 25 10 7 19 19 19 26 0 24 -61 78
-79 71 -27 -11 -33 -10 -38 3 -3 7 4 12 16 12 12 0 21 5 21 10 0 6 -3 9 -7 9
-5 -1 -30 -7 -58 -13z m0 -28 c29 -13 33 -28 6 -28 -10 0 -24 -7 -31 -15 -15
-19 1 -42 33 -48 18 -4 17 -5 -5 -6 -52 -2 -92 74 -50 98 21 13 17 13 47 -1z
m101 -30 c31 -30 30 -38 -7 -71 l-31 -27 26 0 c34 0 33 -18 -1 -31 -20 -8 -24
-13 -13 -17 8 -3 19 -10 23 -16 6 -7 7 -5 4 6 -3 9 1 19 9 22 8 3 14 0 14 -7
0 -24 -24 -37 -67 -37 -38 0 -43 -3 -43 -23 0 -30 -18 -47 -50 -47 -34 0 -50
17 -50 52 0 36 39 64 69 49 27 -15 34 -14 28 3 -3 8 1 17 10 20 9 4 13 14 10
26 -6 22 8 28 16 8 3 -7 6 -3 6 10 1 12 -4 22 -9 22 -22 0 -21 31 1 55 13 13
26 25 28 25 2 0 14 -10 27 -22z m-100 -35 c-10 -10 -19 5 -10 18 6 11 8 11 12
0 2 -7 1 -15 -2 -18z m-70 -28 c-7 -29 15 -45 38 -26 21 18 26 1 5 -20 -22
-22 -35 -24 -43 -6 -3 6 -4 3 -3 -7 1 -10 -4 -21 -10 -23 -16 -6 -18 60 -3 88
15 27 23 24 16 -6z m241 -66 c-13 -21 -36 -26 -33 -6 3 23 17 36 31 31 11 -5
12 -10 2 -25z m-7 -64 c0 -28 -24 -34 -34 -9 -8 20 1 34 20 34 8 0 14 -10 14
-25z m-40 -45 c0 -32 -23 -60 -49 -60 -29 0 -32 11 -8 31 19 16 20 20 9 39
-11 18 -11 21 0 18 18 -6 22 -46 8 -64 -9 -10 -9 -14 -1 -14 6 0 16 11 23 25
9 19 7 29 -6 50 -17 26 -17 26 3 15 14 -7 21 -21 21 -40z m-63 4 c7 -19 -11
-39 -27 -29 -9 6 -9 10 1 16 11 7 11 9 1 9 -7 0 -10 5 -7 10 9 15 25 12 32 -6z
m127 1 c3 -10 -5 -20 -24 -30 -27 -14 -29 -14 -23 2 5 14 30 41 39 43 1 0 4
-7 8 -15z"/>
<path d="M423 382 c24 -26 46 -88 47 -127 1 -118 -107 -226 -225 -225 -39 1
-101 23 -127 47 -16 14 -20 14 -16 3 2 -8 24 -25 48 -38 65 -34 159 -28 226
13 96 60 133 194 82 295 -13 24 -30 46 -38 48 -11 4 -11 0 3 -16z"/>
</g>
</svg>
