<?xml version="1.0" standalone="no"?>
<!DOCTYPE svg PUBLIC "-//W3C//DTD SVG 20010904//EN"
 "http://www.w3.org/TR/2001/REC-SVG-20010904/DTD/svg10.dtd">
<svg version="1.0" xmlns="http://www.w3.org/2000/svg"
 width="128.000000pt" height="128.000000pt" viewBox="0 0 128.000000 128.000000"
 preserveAspectRatio="xMidYMid meet">

<g transform="translate(0.000000,128.000000) scale(0.100000,-0.100000)"
fill="#FFFFFF" stroke="none">
<path d="M485 1181 c-93 -26 -164 -69 -240 -146 -114 -113 -165 -236 -165
-395 0 -159 51 -282 165 -395 114 -115 236 -165 397 -165 159 0 279 50 393
165 114 113 165 236 165 395 0 159 -51 282 -165 395 -76 77 -158 126 -250 150
-78 20 -223 18 -300 -4z m317 -30 c94 -32 141 -62 214 -135 112 -112 158 -222
158 -376 0 -154 -46 -264 -158 -376 -112 -112 -222 -158 -376 -158 -158 0
-288 58 -398 179 -94 103 -136 212 -136 355 0 149 45 261 148 368 82 86 200
149 311 166 55 8 182 -4 237 -23z"/>
<path d="M590 1094 c-19 -7 -52 -13 -74 -13 -28 -1 -48 -9 -73 -31 -18 -16
-40 -30 -48 -30 -8 0 -24 -13 -36 -29 -12 -16 -30 -32 -40 -34 -11 -3 -26 -22
-35 -43 -9 -21 -25 -49 -35 -63 -10 -13 -19 -36 -19 -51 0 -16 -8 -33 -19 -41
-28 -20 -41 -137 -25 -215 7 -33 13 -72 13 -88 1 -20 13 -39 40 -65 27 -25 41
-48 45 -74 6 -32 13 -41 43 -53 19 -8 45 -26 56 -40 19 -21 35 -26 130 -35 60
-6 116 -8 125 -4 9 4 53 10 96 15 70 7 82 11 107 38 18 19 35 29 47 26 24 -7
68 29 91 74 11 21 33 51 51 67 18 17 40 46 51 65 10 19 29 48 41 63 22 27 22
28 6 122 -9 57 -28 118 -47 158 -17 35 -31 69 -31 75 0 6 -12 19 -26 29 -14 9
-30 27 -35 40 -11 30 -204 123 -254 123 -18 0 -46 7 -61 15 -33 17 -37 17 -84
-1z m84 -29 c11 -8 37 -15 59 -15 21 0 51 -7 65 -15 15 -8 57 -28 95 -44 46
-20 70 -37 76 -54 5 -13 21 -31 35 -40 14 -10 26 -23 26 -31 0 -7 11 -35 25
-61 49 -91 71 -240 39 -266 -8 -7 -25 -31 -36 -53 -11 -23 -33 -52 -49 -64
-17 -13 -41 -45 -54 -72 -25 -49 -40 -60 -79 -60 -12 0 -35 -14 -51 -30 -24
-25 -37 -30 -74 -30 -26 0 -62 -5 -81 -10 -21 -7 -75 -8 -139 -4 -92 6 -107 9
-135 33 -17 15 -43 32 -57 38 -20 9 -28 21 -33 51 -4 29 -15 46 -41 66 -24 19
-36 37 -40 64 -4 20 -11 60 -17 88 -14 68 3 171 32 191 13 9 20 25 20 47 0 20
8 40 19 50 10 9 21 30 24 46 4 16 16 34 29 41 13 6 33 24 46 40 13 16 31 29
41 29 10 0 32 14 49 30 26 25 40 30 79 30 27 0 55 5 63 10 21 14 42 12 64 -5z"/>
<path d="M450 940 c-17 -32 0 -47 21 -19 l19 24 19 -24 c21 -28 38 -13 21 19
-7 13 -21 20 -40 20 -19 0 -33 -7 -40 -20z"/>
<path d="M699 950 c-9 -5 -20 -21 -23 -34 -10 -41 -77 -84 -163 -106 -101 -26
-177 -64 -204 -101 -50 -71 -26 -157 50 -180 62 -19 119 7 182 84 28 33 60 79
71 101 24 51 89 98 143 106 35 4 40 9 43 33 2 19 -6 40 -28 67 -33 41 -44 46
-71 30z m41 -39 c0 -10 10 -26 23 -34 19 -14 20 -18 7 -26 -8 -6 -26 -11 -41
-11 -14 0 -43 -13 -66 -30 -33 -25 -43 -28 -52 -16 -9 10 -3 19 30 40 23 16
47 42 55 62 15 36 44 46 44 15z m-150 -136 c11 -13 10 -22 -2 -48 -24 -49 -96
-136 -131 -158 -69 -42 -147 -8 -147 64 0 61 47 102 160 138 69 22 104 23 120
4z"/>
<path d="M389 705 c-29 -16 -55 -66 -45 -90 10 -26 26 -16 26 15 0 24 7 35 30
48 16 9 30 23 30 30 0 15 -8 15 -41 -3z"/>
<path d="M900 811 c-5 -11 -10 -27 -10 -35 0 -22 -69 -96 -89 -96 -50 0 -223
-110 -236 -150 -4 -12 -18 -25 -31 -31 -38 -14 -19 -29 35 -29 41 0 51 -4 65
-25 16 -24 21 -25 75 -19 54 6 59 5 78 -20 34 -43 58 -32 27 12 -15 22 -14 27
19 90 19 37 37 79 41 93 8 35 79 99 111 99 46 0 58 71 14 85 -10 4 -19 12 -19
20 0 29 -64 34 -80 6z m60 -26 c5 -14 16 -25 25 -25 28 0 15 -28 -16 -35 -18
-4 -51 -25 -75 -47 -51 -47 -70 -34 -24 19 30 33 40 52 54 96 8 25 25 21 36
-8z m-125 -155 c18 -20 18 -22 -21 -96 l-39 -76 -58 -3 c-48 -3 -59 0 -67 16
-6 10 -25 22 -43 27 l-32 9 40 39 c46 44 149 103 181 104 11 0 29 -9 39 -20z"/>
<path d="M947 562 c-24 -26 -21 -49 7 -67 46 -31 97 25 60 66 -22 24 -46 24
-67 1z m51 -29 c-2 -10 -10 -18 -18 -18 -8 0 -16 8 -18 18 -2 12 3 17 18 17
15 0 20 -5 18 -17z"/>
<path d="M405 416 c-31 -46 25 -97 66 -60 23 21 24 47 3 68 -23 23 -51 20 -69
-8z m55 -26 c0 -11 -6 -20 -14 -20 -18 0 -29 16 -21 30 11 18 35 11 35 -10z"/>
<path d="M597 329 c-3 -13 2 -28 14 -40 23 -23 29 -23 55 -4 19 14 16 17 -21
19 -15 1 -19 7 -18 24 3 28 -23 30 -30 1z"/>
</g>
</svg>
