<?xml version="1.0" standalone="no"?>
<!DOCTYPE svg PUBLIC "-//W3C//DTD SVG 20010904//EN"
 "http://www.w3.org/TR/2001/REC-SVG-20010904/DTD/svg10.dtd">
<svg version="1.0" xmlns="http://www.w3.org/2000/svg"
 width="512.000000pt" height="512.000000pt" viewBox="0 0 512.000000 512.000000"
 preserveAspectRatio="xMidYMid meet">
<metadata>
Created by potrace 1.16, written by Peter Selinger 2001-2019
</metadata>
<g transform="translate(0.000000,512.000000) scale(0.100000,-0.100000)"
fill="#FFFFFF" stroke="none">
<path d="M1042 4729 c-71 -28 -144 -101 -171 -174 -19 -50 -21 -77 -21 -260 0
-192 1 -206 20 -225 19 -19 33 -20 250 -20 217 0 231 1 250 20 19 19 20 33 20
225 0 183 -2 210 -21 260 -28 74 -100 146 -174 174 -68 26 -85 26 -153 0z"/>
<path d="M2482 4729 c-71 -28 -144 -101 -171 -174 -19 -50 -21 -77 -21 -260 0
-192 1 -206 20 -225 19 -19 33 -20 250 -20 217 0 231 1 250 20 19 19 20 33 20
225 0 244 -10 284 -90 365 -49 48 -135 91 -183 89 -12 0 -46 -9 -75 -20z"/>
<path d="M3922 4729 c-71 -28 -144 -101 -171 -174 -19 -50 -21 -77 -21 -260 0
-192 1 -206 20 -225 19 -19 33 -20 250 -20 217 0 231 1 250 20 19 19 20 33 20
225 0 244 -10 284 -90 365 -49 48 -135 91 -183 89 -12 0 -46 -9 -75 -20z"/>
<path d="M1090 3470 l0 -320 -27 -5 c-150 -32 -277 -115 -357 -233 -90 -132
-116 -271 -74 -392 l23 -65 465 0 465 0 23 65 c64 183 -37 420 -231 544 -49
31 -139 68 -199 81 l-28 5 0 320 0 320 -30 0 -30 0 0 -320z"/>
<path d="M2530 3470 l0 -320 -27 -5 c-150 -32 -277 -115 -357 -233 -90 -132
-116 -271 -74 -392 l23 -65 465 0 465 0 23 65 c64 183 -37 420 -231 544 -49
31 -139 68 -199 81 l-28 5 0 320 0 320 -30 0 -30 0 0 -320z"/>
<path d="M3970 3470 l0 -320 -27 -5 c-150 -32 -277 -115 -357 -233 -90 -132
-116 -271 -74 -392 l23 -65 465 0 465 0 23 65 c64 183 -37 420 -231 544 -49
31 -139 68 -199 81 l-28 5 0 320 0 320 -30 0 -30 0 0 -320z"/>
<path d="M550 2170 c-19 -19 -20 -33 -20 -250 0 -217 1 -231 20 -250 20 -20
33 -20 570 -20 537 0 550 0 570 20 19 19 20 33 20 250 0 217 -1 231 -20 250
-20 20 -33 20 -570 20 -537 0 -550 0 -570 -20z"/>
<path d="M1990 2170 c-19 -19 -20 -33 -20 -250 0 -217 1 -231 20 -250 20 -20
33 -20 570 -20 537 0 550 0 570 20 19 19 20 33 20 250 0 217 -1 231 -20 250
-20 20 -33 20 -570 20 -537 0 -550 0 -570 -20z"/>
<path d="M3430 2170 c-19 -19 -20 -33 -20 -250 0 -217 1 -231 20 -250 20 -20
33 -20 570 -20 537 0 550 0 570 20 19 19 20 33 20 250 0 217 -1 231 -20 250
-20 20 -33 20 -570 20 -537 0 -550 0 -570 -20z"/>
<path d="M690 1310 l0 -80 -60 0 c-88 0 -100 -15 -100 -130 l0 -90 590 0 590
0 0 90 c0 115 -12 130 -100 130 l-60 0 0 80 0 80 -430 0 -430 0 0 -80z"/>
<path d="M2130 1310 l0 -80 -60 0 c-88 0 -100 -15 -100 -130 l0 -90 590 0 590
0 0 90 c0 115 -12 130 -100 130 l-60 0 0 80 0 80 -430 0 -430 0 0 -80z"/>
<path d="M3570 1310 l0 -80 -60 0 c-88 0 -100 -15 -100 -130 l0 -90 590 0 590
0 0 90 c0 115 -12 130 -100 130 l-60 0 0 80 0 80 -430 0 -430 0 0 -80z"/>
<path d="M390 730 c-17 -17 -20 -33 -20 -102 0 -96 18 -145 71 -195 72 -68
-102 -63 2119 -63 2221 0 2047 -5 2119 63 53 50 71 99 71 194 0 70 -3 86 -20
103 -20 20 -33 20 -2170 20 -2137 0 -2150 0 -2170 -20z"/>
</g>
</svg>
