<?xml version="1.0" standalone="no"?>
<!DOCTYPE svg PUBLIC "-//W3C//DTD SVG 20010904//EN"
 "http://www.w3.org/TR/2001/REC-SVG-20010904/DTD/svg10.dtd">
<svg version="1.0" xmlns="http://www.w3.org/2000/svg"
 width="128.000000pt" height="128.000000pt" viewBox="0 0 128.000000 128.000000"
 preserveAspectRatio="xMidYMid meet">

<g transform="translate(0.000000,128.000000) scale(0.100000,-0.100000)"
fill="#FFFFFF" stroke="none">
<path d="M492 1220 c-109 -29 -187 -74 -272 -160 -87 -86 -131 -163 -160 -276
-36 -141 -18 -294 52 -427 42 -81 164 -203 245 -245 133 -70 286 -88 427 -52
113 29 190 73 276 160 87 86 131 163 160 276 36 141 18 294 -52 427 -42 81
-164 203 -245 245 -132 69 -291 88 -431 52z m254 -31 c162 -29 321 -151 394
-303 151 -314 -2 -668 -340 -782 -81 -28 -254 -25 -334 4 -263 96 -417 346
-378 612 21 144 98 275 213 362 131 100 284 136 445 107z"/>
<path d="M360 1010 c0 -107 -1 -111 -30 -152 -45 -62 -74 -166 -67 -242 8 -97
41 -171 105 -235 53 -52 56 -59 57 -104 0 -41 5 -53 28 -73 16 -13 39 -24 53
-24 27 0 74 40 74 63 0 11 19 16 73 20 39 3 81 8 92 12 16 5 20 1 22 -22 2
-33 44 -73 79 -73 14 0 36 11 49 25 22 21 25 33 25 100 0 68 3 79 30 117 37
51 70 154 70 218 0 64 -33 167 -70 218 -27 38 -30 49 -30 123 0 76 -2 82 -29
110 -33 33 -58 36 -101 14 -21 -11 -32 -27 -40 -56 -11 -39 -13 -41 -42 -35
-17 3 -39 6 -49 6 -16 0 -19 8 -19 50 0 43 -3 50 -20 50 -19 0 -20 -7 -20
-130 0 -98 -4 -138 -15 -160 -9 -17 -20 -30 -25 -30 -5 0 -16 -14 -25 -30 -14
-27 -14 -59 -5 -276 12 -258 10 -274 -31 -274 -10 0 -22 8 -27 18 -5 9 -5 121
0 260 7 209 6 247 -7 273 -9 16 -20 29 -25 29 -5 0 -16 13 -25 30 -11 22 -15
62 -15 160 0 123 -1 130 -20 130 -19 0 -20 -7 -20 -110z m504 54 c14 -13 16
-65 16 -418 0 -418 -1 -426 -42 -426 -32 0 -35 30 -22 200 7 90 10 168 8 172
-3 4 -19 8 -36 8 l-31 0 6 183 c6 177 17 258 39 284 14 18 43 16 62 -3z m-158
-90 c20 -5 20 -11 20 -207 l-1 -202 30 -3 30 -3 -7 -87 c-3 -48 -7 -101 -7
-118 -1 -29 -5 -33 -45 -43 -56 -14 -133 -14 -141 0 -4 5 -11 103 -16 216 -8
179 -7 210 6 227 66 89 65 87 65 157 0 65 1 69 23 69 12 0 31 -3 43 -6z m-281
-220 c13 -18 14 -46 8 -200 l-8 -178 -33 34 c-18 19 -45 60 -60 90 -23 47 -27
68 -27 140 0 73 4 93 28 143 l29 57 24 -32 c13 -18 30 -43 39 -54z m540 -18
c26 -86 12 -206 -29 -261 -14 -18 -15 -2 -15 165 0 167 1 183 15 165 8 -11 21
-42 29 -69z"/>
<path d="M440 1010 c0 -103 1 -110 20 -110 19 0 20 7 20 110 0 103 -1 110 -20
110 -19 0 -20 -7 -20 -110z"/>
<path d="M520 1010 c0 -103 1 -110 20 -110 19 0 20 7 20 110 0 103 -1 110 -20
110 -19 0 -20 -7 -20 -110z"/>
<path d="M260 995 c-10 -12 -10 -18 0 -31 12 -13 15 -13 28 0 15 15 10 46 -6
46 -5 0 -15 -7 -22 -15z"/>
<path d="M181 881 c-25 -47 -60 -159 -61 -193 0 -5 9 -8 19 -8 16 0 22 11 31
55 6 31 26 85 44 121 30 59 32 66 16 74 -15 8 -23 0 -49 -49z"/>
</g>
</svg>
