<?xml version="1.0" standalone="no"?>
<!DOCTYPE svg PUBLIC "-//W3C//DTD SVG 20010904//EN"
 "http://www.w3.org/TR/2001/REC-SVG-20010904/DTD/svg10.dtd">
<svg version="1.0" xmlns="http://www.w3.org/2000/svg"
 width="50.000000pt" height="50.000000pt" viewBox="0 0 50.000000 50.000000"
 preserveAspectRatio="xMidYMid meet">

<g transform="translate(0.000000,50.000000) scale(0.100000,-0.100000)"
fill="#FFFFFF" stroke="none">
<path d="M39 448 c-7 -23 -3 -51 8 -55 7 -3 13 -10 13 -16 0 -6 7 -18 16 -28
15 -17 15 -19 0 -35 -16 -15 -16 -18 0 -35 14 -15 14 -21 4 -34 -7 -8 -23 -15
-36 -15 -18 0 -24 -5 -24 -22 0 -41 36 -85 89 -109 38 -18 50 -29 51 -46 0
-22 3 -23 90 -23 87 0 90 1 90 23 1 17 13 28 51 46 53 24 89 68 89 109 0 22
-1 22 -146 22 -137 0 -145 1 -139 19 3 10 -1 24 -10 31 -14 12 -14 15 1 31 16
18 16 20 -2 40 -18 20 -18 20 6 15 39 -9 191 -36 201 -36 5 0 9 6 9 13 0 10
-32 20 -102 32 -115 20 -128 23 -128 36 0 5 59 10 130 11 76 2 131 7 133 13 2
9 -391 21 -394 13z m68 -34 c-3 -3 -12 -4 -19 -1 -8 3 -5 6 6 6 11 1 17 -2 13
-5z m53 -4 c0 -5 -6 -10 -14 -10 -8 0 -18 5 -21 10 -3 6 3 10 14 10 12 0 21
-4 21 -10z m-50 -44 c0 -8 7 -17 16 -20 16 -6 16 -8 0 -24 -20 -23 -20 -38 -1
-46 13 -4 14 -10 5 -26 -14 -27 -40 -27 -33 0 3 11 -1 28 -8 37 -11 13 -11 17
-1 20 14 5 16 39 2 48 -15 9 -12 25 5 25 8 0 15 -6 15 -14z m58 -17 c11 -16
11 -24 1 -36 -10 -12 -10 -19 0 -35 9 -15 9 -23 0 -34 -17 -21 -31 -17 -24 7
5 13 2 25 -6 30 -11 6 -10 13 1 35 12 21 12 28 3 31 -7 3 -13 11 -13 19 0 18
22 9 38 -17z m282 -157 c0 -14 -64 -68 -102 -85 -21 -9 -38 -23 -38 -32 0 -12
-13 -15 -60 -15 -46 0 -60 3 -60 15 0 8 -22 26 -50 40 -48 24 -90 60 -90 77 0
4 90 8 200 8 110 0 200 -4 200 -8z"/>
<path d="M96 169 c22 -24 73 -53 81 -45 3 2 -8 11 -24 20 -16 8 -35 22 -42 30
-8 9 -18 16 -24 16 -5 0 -2 -9 9 -21z"/>
</g>
</svg>
