<?xml version="1.0" standalone="no"?>
<!DOCTYPE svg PUBLIC "-//W3C//DTD SVG 20010904//EN"
 "http://www.w3.org/TR/2001/REC-SVG-20010904/DTD/svg10.dtd">
<svg version="1.0" xmlns="http://www.w3.org/2000/svg"
 width="512.000000pt" height="512.000000pt" viewBox="0 0 512.000000 512.000000"
 preserveAspectRatio="xMidYMid meet">
<metadata>
Created by potrace 1.16, written by Peter Selinger 2001-2019
</metadata>
<g transform="translate(0.000000,512.000000) scale(0.100000,-0.100000)"
fill="#FFFFFF" stroke="none">
<path d="M1440 5093 c0 -15 -10 -38 -22 -51 l-23 -24 28 -24 28 -24 1527 0
c854 0 1554 -4 1589 -9 136 -20 239 -95 300 -219 l38 -76 0 -135 c0 -132 -1
-138 -31 -202 -61 -129 -162 -209 -265 -209 l-56 0 -6 78 c-14 178 -108 310
-265 374 l-57 23 -802 0 -801 0 -25 -24 c-30 -27 -26 -46 14 -66 24 -13 147
-15 837 -15 578 0 819 -3 843 -11 52 -18 97 -56 121 -102 19 -35 23 -62 26
-164 l4 -123 -1175 0 -1176 0 -28 -25 -28 -25 28 -25 28 -25 235 0 234 0 0
-740 0 -740 -317 -1 c-175 0 -340 -5 -368 -10 -27 -5 -82 -12 -121 -15 l-70
-6 -402 497 -402 498 0 52 0 53 90 63 c49 35 130 87 180 115 50 29 100 60 111
70 19 17 19 18 -2 40 l-22 23 -66 -33 c-162 -83 -359 -233 -511 -392 -312
-325 -506 -751 -551 -1206 -39 -408 136 -933 436 -1305 66 -82 206 -224 300
-303 347 -294 815 -471 1241 -470 113 1 174 -7 497 -62 l367 -63 0 -27 c0 -25
3 -28 35 -28 32 0 35 2 35 30 0 20 5 30 15 30 30 0 117 51 159 93 53 53 88
126 94 193 3 41 -1 64 -23 112 -15 33 -38 71 -51 83 -33 31 -35 116 -3 145 35
31 79 133 79 184 0 119 -116 254 -255 295 -42 13 -66 10 -407 -51 -400 -71
-460 -75 -665 -49 -154 20 -218 38 -331 92 -163 77 -271 209 -317 388 -9 33
-19 114 -22 180 -5 102 -3 132 15 204 49 192 192 353 381 429 98 40 154 43
676 40 l500 -3 67 -33 c77 -38 130 -92 166 -171 23 -49 27 -74 32 -192 4 -116
8 -140 24 -158 25 -28 40 -26 66 7 20 25 22 35 17 122 -5 111 -35 210 -84 283
-26 39 -33 59 -33 99 l0 50 158 -4 c155 -3 159 -4 224 -36 74 -36 133 -96 170
-170 19 -40 23 -69 28 -183 4 -106 9 -141 23 -162 22 -34 40 -34 66 -1 17 22
21 41 21 103 0 161 -51 282 -167 400 -70 70 -73 75 -73 120 l1 46 86 40 c109
50 266 154 361 238 315 280 504 671 528 1089 l7 114 68 24 c191 65 343 238
384 437 14 65 14 81 0 145 -44 214 -222 403 -424 451 -46 11 -51 14 -51 39 l0
28 -1545 0 -1545 0 0 -27z m2997 -1255 c-16 -380 -152 -686 -420 -945 -151
-146 -317 -247 -515 -313 -170 -56 -214 -62 -534 -67 l-298 -5 0 741 0 741
887 0 886 0 -6 -152z m-3234 -878 l377 -469 0 -48 c0 -42 -4 -51 -27 -65 -141
-84 -292 -287 -339 -456 l-17 -62 -483 0 c-303 0 -485 4 -489 10 -13 21 -17
349 -6 464 37 376 184 721 429 1010 l72 86 53 -1 52 0 378 -469z m-19 -1269
c21 -188 104 -350 245 -483 71 -67 71 -68 71 -121 0 -52 -2 -56 -162 -285
l-163 -231 -56 -1 c-49 0 -62 5 -115 41 -191 134 -369 317 -496 510 -124 189
-238 462 -238 572 l0 57 454 0 453 0 7 -59z m1932 -647 c60 -44 69 -67 69
-174 0 -109 -10 -133 -75 -177 -32 -22 -40 -23 -274 -23 l-242 0 -19 56 c-11
31 -36 81 -57 111 -32 45 -38 62 -38 103 0 28 1 50 3 51 359 77 577 95 633 53z
m-1328 -38 c50 -15 160 -36 275 -50 204 -26 259 -41 316 -83 90 -66 111 -115
111 -263 0 -100 -3 -121 -24 -165 -65 -137 -207 -179 -529 -156 -226 16 -434
65 -609 144 l-68 30 0 51 c0 51 3 56 168 290 l167 238 55 -5 c30 -3 92 -16
138 -31z m1328 -472 c54 -40 68 -70 72 -151 5 -95 -8 -139 -53 -183 -35 -34
-38 -35 -133 -38 -77 -3 -139 4 -302 32 -113 20 -209 36 -213 36 -4 0 -7 22
-7 50 0 41 7 60 40 111 22 34 48 86 57 116 l17 54 247 -3 c232 -3 249 -4 275
-24z"/>
<path d="M3230 3671 c-84 -26 -151 -83 -191 -161 -29 -59 -28 -113 4 -175 40
-79 116 -139 201 -159 82 -20 225 86 261 193 17 51 17 57 1 107 -37 117 -186
223 -276 195z m151 -130 c28 -28 29 -34 29 -116 0 -82 -1 -88 -29 -116 -28
-28 -34 -29 -116 -29 -82 0 -88 1 -116 29 -28 28 -29 34 -29 116 0 82 1 88 29
116 28 28 34 29 116 29 82 0 88 -1 116 -29z"/>
</g>
</svg>
