<?xml version="1.0" standalone="no"?>
<!DOCTYPE svg PUBLIC "-//W3C//DTD SVG 20010904//EN"
 "http://www.w3.org/TR/2001/REC-SVG-20010904/DTD/svg10.dtd">
<svg version="1.0" xmlns="http://www.w3.org/2000/svg"
 width="50.000000pt" height="50.000000pt" viewBox="0 0 50.000000 50.000000"
 preserveAspectRatio="xMidYMid meet">

<g transform="translate(0.000000,50.000000) scale(0.100000,-0.100000)"
fill="#FFFFFF" stroke="none">
<path d="M140 437 c0 -5 4 -16 9 -26 7 -12 5 -26 -5 -45 -8 -16 -14 -38 -13
-50 1 -15 3 -12 10 11 5 18 14 35 19 38 15 9 12 38 -5 61 -8 10 -15 15 -15 11z"/>
<path d="M210 413 c10 -15 9 -25 -4 -51 -18 -36 -21 -62 -5 -62 5 0 7 4 4 10
-3 5 1 23 10 40 18 35 17 71 -3 78 -11 3 -11 0 -2 -15z"/>
<path d="M276 409 c3 -16 -1 -40 -11 -59 -9 -18 -13 -36 -8 -41 4 -4 15 14 24
41 15 42 15 52 3 67 -13 16 -14 16 -8 -8z"/>
<path d="M392 330 l-64 -70 -148 0 c-163 0 -160 1 -160 -64 0 -114 172 -183
304 -123 79 36 109 92 90 165 -5 16 -14 22 -32 22 -25 0 -22 4 36 63 34 34 62
66 62 70 0 21 -32 -2 -88 -63z m-291 -129 c4 -18 17 -43 29 -55 l22 -21 -21
35 c-12 19 -21 45 -21 58 0 23 0 23 138 20 l137 -3 3 -32 c4 -43 -20 -78 -72
-103 -80 -38 -209 -17 -250 41 -16 24 -22 80 -9 93 16 15 38 -1 44 -33z"/>
</g>
</svg>
