<?xml version="1.0" standalone="no"?>
<!DOCTYPE svg PUBLIC "-//W3C//DTD SVG 20010904//EN"
 "http://www.w3.org/TR/2001/REC-SVG-20010904/DTD/svg10.dtd">
<svg version="1.0" xmlns="http://www.w3.org/2000/svg"
 width="128.000000pt" height="128.000000pt" viewBox="0 0 128.000000 128.000000"
 preserveAspectRatio="xMidYMid meet">

<g transform="translate(0.000000,128.000000) scale(0.100000,-0.100000)"
fill="#FFFFFF" stroke="none">
<path d="M811 1214 c-12 -15 -21 -36 -21 -48 -1 -15 -14 -27 -45 -42 -39 -18
-48 -19 -76 -7 -17 7 -35 13 -40 13 -5 0 -137 -160 -294 -356 l-285 -356 0
-194 c0 -166 2 -194 15 -194 12 0 663 243 1108 413 l57 22 0 206 0 206 -150
63 -150 63 0 34 c0 26 -8 43 -34 69 -19 19 -43 34 -55 34 -25 0 -28 27 -6 56
33 43 10 61 -24 18z m71 -134 c10 -12 18 -38 18 -59 0 -53 -35 -84 -96 -85
-38 -1 -50 3 -70 27 -57 67 -9 149 83 142 34 -2 52 -9 65 -25z m-200 -48 c-3
-41 0 -52 23 -80 52 -62 140 -64 199 -5 l25 25 125 -53 c69 -30 126 -56 126
-59 0 -6 -1053 -411 -1057 -406 -2 2 112 147 254 323 249 311 258 320 283 311
25 -8 27 -12 22 -56z m518 -292 c0 -77 -3 -92 -17 -97 -10 -3 -258 -100 -551
-215 -294 -114 -538 -208 -543 -208 -6 0 -9 39 -7 91 l3 91 550 213 c303 117
553 213 558 214 4 1 7 -40 7 -89z m0 -188 l0 -67 -192 -72 c-106 -40 -359
-135 -561 -212 l-368 -139 3 60 3 61 555 218 c305 119 556 218 558 218 1 1 2
-29 2 -67z"/>
<path d="M610 971 c0 -12 6 -21 16 -21 9 0 14 7 12 17 -5 25 -28 28 -28 4z"/>
<path d="M900 865 c0 -8 9 -15 20 -15 11 0 20 7 20 15 0 8 -9 15 -20 15 -11 0
-20 -7 -20 -15z"/>
<path d="M520 830 c0 -13 5 -20 13 -17 6 2 12 10 12 17 0 7 -6 15 -12 18 -8 2
-13 -5 -13 -18z"/>
<path d="M730 815 c0 -9 5 -15 11 -13 6 2 11 8 11 13 0 5 -5 11 -11 13 -6 2
-11 -4 -11 -13z"/>
<path d="M590 746 c0 -12 28 -25 53 -26 14 0 7 28 -9 34 -26 10 -44 7 -44 -8z"/>
<path d="M397 724 c-11 -12 3 -24 29 -24 15 0 24 6 24 15 0 15 -40 21 -53 9z"/>
<path d="M305 611 c-3 -5 -1 -12 5 -16 12 -7 30 2 30 16 0 12 -27 12 -35 0z"/>
</g>
</svg>
