<?xml version="1.0" standalone="no"?>
<!DOCTYPE svg PUBLIC "-//W3C//DTD SVG 20010904//EN"
 "http://www.w3.org/TR/2001/REC-SVG-20010904/DTD/svg10.dtd">
<svg version="1.0" xmlns="http://www.w3.org/2000/svg"
 width="128.000000pt" height="128.000000pt" viewBox="0 0 128.000000 128.000000"
 preserveAspectRatio="xMidYMid meet">

<g transform="translate(0.000000,128.000000) scale(0.100000,-0.100000)"
fill="#FFFFFF" stroke="none">
<path d="M474 1208 c-3 -13 -15 -35 -25 -50 -25 -34 -24 -89 1 -121 11 -14 20
-37 20 -52 0 -15 -9 -38 -20 -52 -21 -27 -27 -68 -10 -78 6 -3 15 6 20 21 6
14 19 38 30 52 28 34 25 79 -7 125 l-27 39 28 53 c27 49 30 85 7 85 -5 0 -13
-10 -17 -22z"/>
<path d="M614 1208 c-3 -13 -15 -35 -25 -50 -25 -34 -24 -89 1 -121 11 -14 20
-37 20 -52 0 -15 -9 -38 -20 -52 -21 -27 -27 -68 -10 -78 6 -3 15 6 20 21 6
14 19 38 30 52 28 34 25 79 -7 125 l-27 39 28 53 c27 49 30 85 7 85 -5 0 -13
-10 -17 -22z"/>
<path d="M754 1208 c-3 -13 -15 -35 -25 -50 -25 -34 -24 -89 1 -121 11 -14 20
-37 20 -52 0 -15 -9 -38 -20 -52 -21 -27 -27 -68 -10 -78 6 -3 15 6 20 21 6
14 19 38 30 52 28 34 25 79 -7 125 l-27 39 28 53 c27 49 30 85 7 85 -5 0 -13
-10 -17 -22z"/>
<path d="M131 791 c-22 -14 -27 -113 -7 -130 19 -16 24 -7 28 59 l3 45 115 0
115 0 3 -40 c3 -36 -2 -44 -48 -90 l-50 -49 0 -98 c0 -93 1 -98 25 -114 19
-12 42 -15 99 -12 102 5 106 9 106 127 l0 97 -50 49 c-46 46 -51 54 -48 90 l3
40 319 3 318 2 -4 -122 c-3 -118 -5 -126 -40 -198 -59 -121 -168 -212 -293
-244 -209 -55 -431 47 -529 241 -9 18 -22 59 -30 90 -9 42 -18 59 -31 62 -49
9 26 -193 104 -281 23 -26 69 -65 102 -87 l61 -41 -189 0 c-196 0 -213 -3
-213 -42 0 -32 28 -75 57 -87 20 -8 147 -11 443 -9 361 3 415 5 415 18 0 13
-54 15 -419 18 -373 2 -422 4 -438 19 -48 43 -50 43 552 43 314 0 570 -4 570
-8 0 -5 -6 -17 -14 -28 -12 -15 -30 -20 -103 -24 -69 -4 -88 -8 -88 -20 0 -12
17 -15 92 -15 86 0 94 2 117 25 32 33 41 74 20 94 -13 13 -46 16 -207 16
l-192 0 45 26 c25 14 54 34 65 44 14 13 42 19 96 22 59 4 87 11 129 34 117 63
174 220 115 311 -19 29 -88 62 -127 63 -26 0 -28 3 -28 43 0 24 -5 48 -12 55
-15 15 -934 17 -957 3z m1059 -158 c97 -57 46 -234 -85 -294 -49 -23 -134 -26
-116 -5 6 7 32 16 57 19 81 9 154 84 162 167 4 43 1 55 -18 75 -16 17 -34 25
-57 25 -23 0 -33 5 -33 15 0 21 54 20 90 -2z m-710 -145 l0 -88 -75 0 -75 0 0
87 c0 75 3 90 22 110 29 31 38 29 38 -7 0 -20 5 -30 15 -30 11 0 15 11 15 37
l0 37 30 -29 c29 -28 30 -32 30 -117z m689 73 c12 -21 1 -70 -24 -108 -19 -28
-72 -63 -98 -63 -16 0 -15 5 7 48 13 26 28 66 31 88 10 52 12 54 45 54 18 0
33 -7 39 -19z"/>
</g>
</svg>
